<svg height='0' width='0' style='position:absolute; margin-left: -100%;'>
  <path id="twitter" d="M89.7,29.5v2.8c0,6.7-1.3,13.5-3.8,20.5c-2.5,6.9-6.3,13.2-11.2,18.8c-4.9,5.6-11,10.1-18.2,13.7 c-7.3,3.6-15.6,5.3-25,5.3c-5.9,0-11.5-0.8-16.7-2.4C9.5,86.6,4.6,84.3,0,81.3c0.8,0.1,1.6,0.2,2.4,0.3s1.6,0.1,2.4,0.1 c4.8,0,9.4-0.8,13.8-2.4c4.4-1.6,8.3-3.8,11.8-6.5c-4.6-0.1-8.6-1.5-12-4.1c-3.4-2.6-5.8-6-7.2-10.2c0.7,0.3,1.3,0.4,1.9,0.4h1.9 c1.9,0,3.6-0.2,5.2-0.6c-4.7-1.1-8.6-3.5-11.7-7.2s-4.6-8-4.6-13V38c1.5,0.7,3,1.2,4.4,1.7c1.5,0.5,3.1,0.7,4.8,0.7 c-2.7-1.9-4.9-4.3-6.6-7.3c-1.7-3-2.5-6.2-2.5-9.7c0-3.8,0.9-7.2,2.8-10.3c5.1,6.2,11.3,11.2,18.5,15c7.3,3.8,15.1,5.9,23.6,6.4 c-0.4-1.6-0.6-3.2-0.6-4.6c0-2.8,0.5-5.5,1.6-8c1.1-2.5,2.6-4.7,4.4-6.6s4.1-3.4,6.6-4.4c2.5-1.1,5.1-1.6,8-1.6c3,0,5.7,0.6,8.3,1.7 c2.6,1.1,4.8,2.7,6.7,4.7c2.4-0.4,4.7-1,6.9-1.9c2.2-0.9,4.2-1.9,6.3-3.1c-1.6,5-4.6,8.8-9.1,11.5c4.3-0.7,8.3-1.8,11.9-3.2 C97,23.3,93.6,26.8,89.7,29.5z"/>
  <path id="dribbble" d="M31.7,93.5c-5.7-2.5-10.7-5.8-15-10.1c-4.3-4.3-7.6-9.3-10.1-15S2.8,56.4,2.8,49.9c0-6.4,1.2-12.5,3.7-18.2 s5.8-10.8,10.1-15s9.3-7.6,15-10.1c5.7-2.5,11.9-3.7,18.4-3.7c6.4,0,12.5,1.2,18.2,3.7c5.7,2.5,10.8,5.8,15,10.1 c4.3,4.3,7.6,9.3,10.1,15c2.5,5.7,3.7,11.8,3.7,18.2c0,6.5-1.2,12.7-3.7,18.4c-2.5,5.7-5.8,10.8-10.1,15c-4.3,4.3-9.3,7.6-15,10.1 c-5.7,2.5-11.8,3.7-18.2,3.7C43.6,97.2,37.4,95.9,31.7,93.5z M21.3,76.5c3.9-6,8.6-11.2,14.2-15.4s11.8-7.5,18.4-9.8 c-0.5-1.7-1.3-3.6-2.2-5.6c-5.7,2.1-11.6,3.7-17.5,4.7c-5.9,1-11.9,1.5-17.9,1.5h-2.5c-0.9,0-1.8-0.1-2.9-0.2 C11.2,61.3,14.7,69.6,21.3,76.5z M13.7,44.1h2.6c10.9,0,21.6-1.8,31.8-5.4c-4.5-8.4-9.9-16.3-16-23.6c-5.6,2.9-10.2,7-13.9,12 s-6,10.7-6.9,16.8C12,44,12.8,44.1,13.7,44.1z M50.1,89.2c4.3,0,8.3-0.7,12.2-2c-0.8-9.7-2.7-19.2-5.8-28.4c-6,2-11.5,5-16.5,8.9 c-5,3.9-9.2,8.7-12.7,14.3C33.8,86.8,41.4,89.2,50.1,89.2z M48.4,23.6c2.6,3.9,5,8,7.1,12.1c3.9-1.7,7.6-3.8,11.2-6.1 c3.6-2.3,7.1-4.9,10.6-7.7c-3.7-3.6-7.9-6.4-12.6-8.3c-4.7-1.9-9.5-2.9-14.6-2.9c-1.7,0-3.5,0.1-5.2,0.4c-1.7,0.3-3.4,0.6-5,1 C43,15.8,45.8,19.6,48.4,23.6z M89.3,49.7c0-8-2.3-15.3-7-21.8c-7.2,6.3-15,11.3-23.4,15c0.5,1.1,1,2.1,1.4,3.2 c0.4,1.1,0.9,2.1,1.4,3.2c2.1-0.5,4.3-0.9,6.4-1.1c2.1-0.2,4.3-0.3,6.4-0.3C79.3,47.9,84.3,48.5,89.3,49.7z M67.7,69.9 c0.9,4.5,1.7,9.1,2.2,13.8c4.8-2.8,8.9-6.4,12.1-10.9c3.3-4.5,5.4-9.5,6.5-15.1c-2.4-0.7-4.8-1.2-7.1-1.5c-2.3-0.3-4.6-0.5-6.9-0.5 c-3.1,0-6.5,0.3-10.2,1C65.7,61,66.8,65.4,67.7,69.9z"/>
  <path id="linkedin" d="M20.6,5.6c2,2,3,4.5,3,7.5c0,3-1,5.5-3,7.6c-2,2.1-4.5,3.1-7.5,3.1c-3,0-5.4-1-7.5-3.1c-2-2.1-3-4.6-3-7.6 c0-3,1-5.4,3-7.5c2-2,4.5-3,7.5-3C16.1,2.5,18.5,3.5,20.6,5.6z M23.6,28.9v68.6h-21V28.9H23.6z M93.3,43.5c2.7,4.6,4,9.4,4,14.2 v39.7H76.2V57.8c0-1.1-0.4-2.3-1.2-3.6c-0.8-1.3-1.5-2.2-2.2-2.6c-1.1-0.7-2.6-1-4.4-1c-1.9,0-3.4,0.3-4.4,0.8l-8.7,4.2v41.9H34.1 V28.9h21.2v3.2c4.2-1.9,8.9-2.8,14.1-2.6c5.2,0.1,9.8,1.3,13.7,3.6C87.2,35.5,90.7,38.9,93.3,43.5z"/>
  <path id="github" fill-rule="evenodd" d="M50,3.7C23.8,3.7,2.6,25,2.6,51.2c0,21,13.6,38.7,32.4,45 c2.4,0.4,3.2-1,3.2-2.3c0-1.1,0-4.1-0.1-8.1c-13.2,2.9-16-6.4-16-6.4c-2.2-5.5-5.3-6.9-5.3-6.9c-4.3-2.9,0.3-2.9,0.3-2.9 c4.8,0.3,7.3,4.9,7.3,4.9c4.2,7.2,11.1,5.2,13.8,3.9c0.4-3.1,1.7-5.2,3-6.3c-10.5-1.2-21.6-5.3-21.6-23.4c0-5.2,1.8-9.4,4.9-12.7 c-0.5-1.2-2.1-6,0.5-12.6c0,0,4-1.3,13,4.9c3.8-1.1,7.8-1.6,11.9-1.6c4,0,8.1,0.5,11.9,1.6c9.1-6.1,13-4.9,13-4.9 c2.6,6.5,1,11.4,0.5,12.6c3,3.3,4.9,7.5,4.9,12.7c0,18.2-11.1,22.2-21.7,23.4c1.7,1.5,3.2,4.4,3.2,8.8c0,6.3-0.1,11.5-0.1,13 c0,1.3,0.9,2.7,3.3,2.3c18.8-6.3,32.4-24,32.4-45C97.4,25,76.2,3.7,50,3.7z"/>
</svg>
