<?xml version="1.0" encoding="UTF-8" standalone="no"?>
<svg width="0" style="position:absolute;margin-left:-100%" xmlns="http://www.w3.org/2000/svg" height="0">
 <path id="twitter" d="m89.7 29.5v2.8c0 6.7-1.3 13.5-3.8 20.5-2.5 6.9-6.3 13.2-11.2 18.8s-11 10.1-18.2 13.7c-7.3 3.6-15.6 5.3-25 5.3-5.9 0-11.5-0.8-16.7-2.4-5.3-1.6-10.2-3.9-14.8-6.9l2.4 0.3s1.6 0.1 2.4 0.1c4.8 0 9.4-0.8 13.8-2.4s8.3-3.8 11.8-6.5c-4.6-0.1-8.6-1.5-12-4.1s-5.8-6-7.2-10.2c0.7 0.3 1.3 0.4 1.9 0.4h1.9c1.9 0 3.6-0.2 5.2-0.6-4.7-1.1-8.6-3.5-11.7-7.2s-4.6-8-4.6-13v-0.1c1.5 0.7 3 1.2 4.4 1.7 1.5 0.5 3.1 0.7 4.8 0.7-2.7-1.9-4.9-4.3-6.6-7.3s-2.5-6.2-2.5-9.7c0-3.8 0.9-7.2 2.8-10.3 5.1 6.2 11.3 11.2 18.5 15 7.3 3.8 15.1 5.9 23.6 6.4-0.4-1.6-0.6-3.2-0.6-4.6 0-2.8 0.5-5.5 1.6-8s2.6-4.7 4.4-6.6 4.1-3.4 6.6-4.4c2.5-1.1 5.1-1.6 8-1.6 3 0 5.7 0.6 8.3 1.7s4.8 2.7 6.7 4.7c2.4-0.4 4.7-1 6.9-1.9s4.2-1.9 6.3-3.1c-1.6 5-4.6 8.8-9.1 11.5 4.3-0.7 8.3-1.8 11.9-3.2-2.9 4.3-6.3 7.8-10.2 10.5z"/>
 <path id="dribbble" d="m31.7 93.5c-5.7-2.5-10.7-5.8-15-10.1s-7.6-9.3-10.1-15-3.8-12-3.8-18.5c0-6.4 1.2-12.5 3.7-18.2s5.8-10.8 10.1-15 9.3-7.6 15-10.1c5.7-2.5 11.9-3.7 18.4-3.7 6.4 0 12.5 1.2 18.2 3.7s10.8 5.8 15 10.1c4.3 4.3 7.6 9.3 10.1 15s3.7 11.8 3.7 18.2c0 6.5-1.2 12.7-3.7 18.4s-5.8 10.8-10.1 15c-4.3 4.3-9.3 7.6-15 10.1s-11.8 3.7-18.2 3.7c-6.4 0.1-12.6-1.2-18.3-3.6zm-10.4-17c3.9-6 8.6-11.2 14.2-15.4s11.8-7.5 18.4-9.8c-0.5-1.7-1.3-3.6-2.2-5.6-5.7 2.1-11.6 3.7-17.5 4.7s-11.9 1.5-17.9 1.5h-2.5c-0.9 0-1.8-0.1-2.9-0.2 0.3 9.6 3.8 17.9 10.4 24.8zm-7.6-32.4h2.6c10.9 0 21.6-1.8 31.8-5.4-4.5-8.4-9.9-16.3-16-23.6-5.6 2.9-10.2 7-13.9 12s-6 10.7-6.9 16.8c0.7 0.1 1.5 0.2 2.4 0.2zm36.4 45.1c4.3 0 8.3-0.7 12.2-2-0.8-9.7-2.7-19.2-5.8-28.4-6 2-11.5 5-16.5 8.9s-9.2 8.7-12.7 14.3c6.5 4.8 14.1 7.2 22.8 7.2zm-1.7-65.6c2.6 3.9 5 8 7.1 12.1 3.9-1.7 7.6-3.8 11.2-6.1s7.1-4.9 10.6-7.7c-3.7-3.6-7.9-6.4-12.6-8.3s-9.5-2.9-14.6-2.9c-1.7 0-3.5 0.1-5.2 0.4s-3.4 0.6-5 1c3.1 3.7 5.9 7.5 8.5 11.5zm40.9 26.1c0-8-2.3-15.3-7-21.8-7.2 6.3-15 11.3-23.4 15 0.5 1.1 1 2.1 1.4 3.2s0.9 2.1 1.4 3.2c2.1-0.5 4.3-0.9 6.4-1.1s4.3-0.3 6.4-0.3c4.8 0 9.8 0.6 14.8 1.8zm-21.6 20.2c0.9 4.5 1.7 9.1 2.2 13.8 4.8-2.8 8.9-6.4 12.1-10.9 3.3-4.5 5.4-9.5 6.5-15.1-2.4-0.7-4.8-1.2-7.1-1.5s-4.6-0.5-6.9-0.5c-3.1 0-6.5 0.3-10.2 1 1.4 4.3 2.5 8.7 3.4 13.2z"/>
 <path id="linkedin" d="m20.6 5.6c2 2 3 4.5 3 7.5s-1 5.5-3 7.6-4.5 3.1-7.5 3.1-5.4-1-7.5-3.1c-2-2.1-3-4.6-3-7.6s1-5.4 3-7.5c2-2 4.5-3 7.5-3 3-0.1 5.4 0.9 7.5 3zm3 23.3v68.6h-21v-68.6h21zm69.7 14.6c2.7 4.6 4 9.4 4 14.2v39.7h-21.1v-39.6c0-1.1-0.4-2.3-1.2-3.6s-1.5-2.2-2.2-2.6c-1.1-0.7-2.6-1-4.4-1-1.9 0-3.4 0.3-4.4 0.8l-8.7 4.2v41.9h-21.2v-68.6h21.2v3.2c4.2-1.9 8.9-2.8 14.1-2.6 5.2 0.1 9.8 1.3 13.7 3.6 4.1 2.4 7.6 5.8 10.2 10.4z"/>
 <path id="github" d="m50 3.7c-26.2 0-47.4 21.3-47.4 47.5 0 21 13.6 38.7 32.4 45 2.4 0.4 3.2-1 3.2-2.3 0-1.1 0-4.1-0.1-8.1-13.2 2.9-16-6.4-16-6.4-2.2-5.5-5.3-6.9-5.3-6.9-4.3-2.9 0.3-2.9 0.3-2.9 4.8 0.3 7.3 4.9 7.3 4.9 4.2 7.2 11.1 5.2 13.8 3.9 0.4-3.1 1.7-5.2 3-6.3-10.5-1.2-21.6-5.3-21.6-23.4 0-5.2 1.8-9.4 4.9-12.7-0.5-1.2-2.1-6 0.5-12.6 0 0 4-1.3 13 4.9 3.8-1.1 7.8-1.6 11.9-1.6 4 0 8.1 0.5 11.9 1.6 9.1-6.1 13-4.9 13-4.9 2.6 6.5 1 11.4 0.5 12.6 3 3.3 4.9 7.5 4.9 12.7 0 18.2-11.1 22.2-21.7 23.4 1.7 1.5 3.2 4.4 3.2 8.8 0 6.3-0.1 11.5-0.1 13 0 1.3 0.9 2.7 3.3 2.3 18.8-6.3 32.4-24 32.4-45 0.1-26.2-21.1-47.5-47.3-47.5z" fill-rule="evenodd"/>
 <g id="email">
  <polygon points="0 98 100 98 100 53.4 50.1 72.8 0 53.4"/>
  <polygon points="0 31.9 0 42.1 50.1 61.5 100 42.1 100 31.9"/>
 </g>
</svg>
