<svg xmlns="http://www.w3.org/2000/svg" width="395.169" height="243.351" viewBox="24.391 26.046 395.169 243.351" enable-background="new 24.391 26.046 395.169 243.351"><path fill="#E7E7D7" d="M405.319 43.447l-.11.094c-.194.368-.513.602-.301 1.851.213 1.248.131 3.049-.672 4.619-.805 1.568-.629 2.549-.629 2.549s-.91-1.369-1.205-2.274c-.294-.904.09-2.059.625-3.382.535-1.324.932-1.564.102-2.939-.066-.112-.147-.199-.234-.276l-2.155-.094c-4.501.326-8.494.627-9.624.763-2.93.354-2.979 5.958-3.333 5.655-.354-.303-.757-.101-1.312.455-.557.555-1.818 3.282-1.818 3.282s-.707-.354-1.01-1.061-.252-1.716-.453-2.121c-.203-.404-.404.303-.606-.252-.202-.556-.656-1.061-1.263-1.313-.605-.252-.959.707-.959.707l-.555-.051c-.557-.05-1.365 1.161-1.617 1.313l-1.918.151c-.051.151.403.808 0 .606s-1.564-.303-2.879-.404c-1.312-.101-2.321 2.171-2.676 2.02-.354-.152-1.717.404-2.271.757-.556.353-2.07.454-2.173.858-.101.404-.354.707.151 1.869.507 1.161.858 2.928.455 4.645-.403 1.716 0 2.625 0 2.625s-1.212-1.111-1.715-1.919c-.502-.808-.406-2.02-.204-3.433s.53-1.742-.605-2.878c-1.137-1.136-3.028.833-4.09 1.136-1.061.303-2.649.379-3.104.379-.454 0-.151 1.212-.53 1.439-.378.227-1.061.076-1.438.378-.379.303.303.455-.682 1.212-.986.757-3.408 2.727-4.394 3.181-.984.454-3.029.757-4.091.757-1.061 0 0 2.348.38 3.181.378.833-.304 2.196-.683 2.423l-.332.175c-.468.15-.912.479-1.16 1.155-.133.308-.176.688-.196 1.02l-.037.607c-.026.192-.082.238-.243-.003-.454-.681-4.847-6.589-6.059-6.892-1.213-.303-4.165 2.121-5.149 2.423-.985.303-.151 1.136.228 2.651s.076 2.575-.151 3.181l.983.606s.151.682 0 1.212c-.15.53-.832-.076-.453.53.379.605.453 1.136.453 1.136s-.604-.076-1.211.152c-.605.227-1.061.303-2.121.909l-.758 2.423-.453.076s-1.438-3.711-1.895-5.983c-.454-2.272-.682-3.029-.378-4.166.304-1.136.378-4.468.378-5.15s-.984-1.439-1.59-1.136c-.605.303-1.212.455-1.971.303-.756-.151-3.028-.53-3.406.076-.379.606-.682 4.468-.682 5.68s-1.289 1.288-.985 2.196c.304.909.228 2.575.304 3.56.075.984 0 1.288 0 1.742 0 .455-.605 0-.455.606l-.379 3.938h-2.727c-.379 0-1.061-.228-.758-.682.304-.455 0-2.045.53-3.408s.075-2.878 0-3.863c-.075-.984.228-2.499 0-4.62l-.606-2.651s.305-1.211.531-1.666c.228-.455.834-3.56.834-4.317 0-.757-.531-1.212-.834-1.439-.304-.227-.455-1.288-1.438-1.515s-1.591.833-1.97.833-.908-.076-1.438.151c-.53.228-.909 3.863-.833 4.62.076.757-.454 3.938-.984 4.695-.529.757-.605 1.363-.908 2.651s-.303 1.288-.758 1.818.304 1.742-.908 2.499c-1.213.757-3.408-.606-3.862-.909-.455-.303-1.062-1.515-1.591-1.818-.53-.303-1.666-.757-1.969-.833-.303-.076 0-.682.227-1.136.229-.454.834-5.377 1.439-7.725.604-2.348 1.969-6.286 2.424-7.043.453-.757.303-1.136.529-1.894.228-.757.455-.757.758-1.59s-.379-.303-.758-.833-.455-.682-3.029-1.363c-2.574-.682-2.65 1.061-3.029 1.742-.378.682-.075 1.288-.378 1.288-.304 0-.834 1.59-1.138 2.575-.303.984-2.877 6.362-3.711 7.649-.832 1.288-3.635 4.469-3.938 4.166-.303-.303-1.816-.53-1.816-.53v-5.377s.379-3.787.832-7.346c.455-3.56 1.817-5.907 2.349-7.119.53-1.212.228-2.5 0-2.954-.228-.455-.378-.228-.683-.228-.303 0 0-1.363-.604-1.817s-.604.151-.833-.076-.605-.455-2.045-.718c-1.439-.263-1.895 1.172-1.969 2.233-.076 1.062-.455.832-.902 1.514-.448.682-.083 1.061-.007 1.742.075.682-.53 1.061-.833 1.439-.303.379.074 1.288 0 1.894-.076.606-.379 1.363-.53 1.666s-.379.076-.379.909-.151 1.893-.833 3.256-1.061-.076-.757 1.061c.303 1.136-2.5 3.256-4.545 4.393-2.044 1.136-4.015.303-4.001-.909.013-1.211-.393-1.06-.694-2.423-.302-1.363-.683-1.969.151-2.65.832-.682.605-2.424 0-3.105-.605-.682-1.213-2.196-1.213-2.575 0-.378.606-.303.442-.833-.163-.53-1.198-.227-1.198-.605 0-.379.983-5.983 1.146-6.438s-.087-2.196-.391-2.424c-.303-.227.151-1.06.304-2.65.151-1.591.075-.303 0-1.136-.076-.833-1.97-3.257-3.257-3.408s-1.516 1.666-2.045 3.257c-.53 1.59-.909 2.499-1.363 2.348-.454-.151-.757-.606-1.592.626-.832 1.232-1.59 4.75-1.211 4.827.379.076.529.454.304.909-.228.455.454.833 0 1.363-.455.53.075 1.817-.347 2.045-.42.227-.715.378-.108 1.287s-1.438 1.667-2.953 2.5-2.878.227-4.014 0c-1.138-.227-.53-1.515 0-2.272.528-.757.303-2.5 0-2.954-.304-.455 1.286-.682 1.136-2.575-.15-1.893-2.803-3.029-3.711-3.181-.909-.152-2.271-.757-2.575-1.363-.303-.606-.983-1.363-1.212-1.667-.227-.303-.15-1.136-.379-1.893-.227-.757-.678-.909-.678-.909s-.079-1.363-.004-3.029c.076-1.666-1.061-2.65-2.196-2.878-1.136-.227-2.423-.757-4.394-.151-1.969.606-2.348 6.589-2.271 7.293.075.704 1.287 3.613 1.136 4.219-.15.606-.682 1.439-.529.682.151-.757-.834-2.07-1.642-2.474-.808-.404-2.424.808-2.222.606.201-.202 1.816-2.423 0-4.039-1.817-1.616-3.635 1.616-4.039 1.007s-.605-1.209-1.816-2.623c-1.213-1.414.604-.808 0-3.635-.607-2.828-7.878-3.231-10.706-3.635-2.827-.404-2.222.606-4.443 2.222-2.222 1.616-1.212 3.635-.404 4.241l2.221 1.818-2.829 5.05-.81-1.009-4.65-3.633s-.009.004 1.808-2.419c1.818-2.423.991-7.261-1.836-7.059-2.827.202-12.761 8.703-12.963 11.732-.089 1.341-.589 3.402-1.119 5.283-.88-.258-1.677-.442-2.342-.522-3.787-.454-5.754-.456-8.178-.001-2.423.454-3.18 1.362-4.392 1.666-1.212.303-8.937 2.12-9.845 2.271-.909.152-.605.606-1.515 1.515-.909.909-6.361 1.061-8.785 2.423-2.423 1.363-7.119 7.119-8.785 8.482-1.666 1.363-3.181 1.818-4.999 2.727-1.817.909-2.423 1.363-2.878 2.575-.454 1.212-.757 2.424-.757 2.424s-3.484 2.121-5.301 3.484c-4.538 3.403-9.577 6.42-13.911 10.042-3.659 3.058-7.424 5.475-11.522 7.882-5.601 3.29-10.13 7.504-16.061 10.328-1.889.899-3.005 2.314-4.632 3.532-4.016 3.006-9.115 4.184-13.711 5.999-5.175 2.043-10.343 4.23-15.288 6.783-3.211 1.658-6.376 3.48-9.501 5.303-2.043 1.192-4.285 1.948-5.994 3.636-1.87 1.847-3.273 3.814-5.474 5.318-1.584 1.083-2.754 2.545-4.132 3.851-1.301 1.233-3.026 2.151-4.063 3.643-1.479 2.127-1.49 5.08-3.406 6.996-.757.757-1.515 1.969-.909 3.786s1.136 1.288 1.136 2.196.682 4.09 1.212 5.227c.53 1.137 1.136 2.271 1.136 4.014 0 1.744-.455 3.787.833 6.287 1.288 2.498 1.817 2.84 1.969 3.823.152.984.303 1.478.303 1.478h.53s.227.984.909 1.212c.208.069.437-.103.677-.388l.131.388c.354 1.01.707 2.069 1.969 3.888 1.262 1.818 3.181 3.182 3.181 3.182s.858 1.465 1.666 2.373c.808.908 2.777 1.717 2.777 1.717s-.606-1.211-.808-2.574.151.808 1.363 1.262c1.211.454 1.009.253 1.009.253s.051-.858-.404-1.817c-.454-.959-.909-1.363-1.111-2.676l.101-1.263s1.313 1.918 3.333 3.938l4.897 3.131s.05-.707-.252-1.161c-.303-.455-1.717-2.677-2.423-4.494-.707-1.817-.757-2.625-.757-2.625s.555.252.959.202c.269-.034.269-.156.239-.234.284.523 2.237 4.027 4.709 5.939 2.676 2.07 5.806 3.08 5.806 3.08s.606-.656 0-1.313c-.606-.655-3.534-3.938-4.292-6.312-.758-2.373-1.01-6.815-.808-7.019.202-.202.404-.151.404-.151s.656.959 1.01 1.363 1.06 5.15 5.301 8.383c4.241 3.229 6.312 3.028 6.312 3.028s-2.02-3.585-3.333-5.149c-1.313-1.565-1.616-3.838-1.666-4.596-.051-.757-.101-2.423-.101-2.423s2.777 2.069 3.584 2.524c.808.453 1.515 1.211 2.727 1.666 1.212.453 2.625.252 2.625.252s.101-.506-.252-.908c-.354-.404-3.282-4.999-3.282-4.999s1.717.858 2.373.909l.354-.202s-.455-2.929-.051-3.181c.404-.254 1.464 0 1.464 0s1.363 4.09 3.938 7.119c2.575 3.028 6.513 4.09 7.119 3.987.605-.101-2.929-3.987-3.787-6.715l-.656-6.312h.656s1.162 2.929 4.09 4.847c2.928 1.919 5.604 1.97 6.109 1.868l.808-.506s-1.817-1.262-3.635-3.785c-1.817-2.524-1.868-4.596-1.868-4.596s.959.91 1.464 1.162c.505.252 1.616.252 1.616.252s-.707-2.322-.808-3.08c-.101-.758.909.707 1.212 1.162.303.453 2.07 3.434 3.837 4.291l4.241 1.01s-.505-1.362-1.313-2.271c-.808-.909-2.828-4.848-2.272-5.604.555-.758 1.414-1.465 1.414-1.465s2.222 3.787 4.847 5.856l6.261 2.424s-.505-1.414-1.717-2.575c-1.211-1.16-1.918-2.424-2.575-4.847-.656-2.424-.354-3.231-.354-3.231l.656-.303s3.585 4.544 6.109 5.654c2.524 1.111 4.09.556 4.09.556s-.606-1.161-1.515-1.666c-.909-.505.959-.354.959-.354s-3.332-4.897-3.989-6.261c-.656-1.363-.303-1.516.101-1.717.404-.203.656-.304.656-.304s1.969 3.687 4.746 4.797c2.777 1.11 4.494.504 4.494.504s0-.604-.606-1.161c-.605-.555-2.979-3.383-2.979-3.383s.202 0 .555-.101l.656-.202s-3.282-3.282-2.979-4.039c.303-.758 1.162-.909 1.162-.909s.303 1.515 1.716 2.425c1.414.908 3.13.555 3.13.555s-.252-.807-.605-1.262c-.354-.455-.556-1.011-.556-1.011s.505.304 1.161.202c.657-.102 1.061-.505 1.061-.505s-.101-.454-.354-.759c-.252-.303-1.767-2.17-1.565-2.625.202-.455.555-.505.555-.505s.656 1.716 1.818 1.918c1.161.202 1.161 0 1.161 0s-1.01-1.464-.656-1.616c.354-.152 1.616.252 1.767.051.151-.202 1.414-.606 2.221-.808.808-.202 1.515-.757 1.818-.757.303 0 .858.051 1.262 0 .404-.05 1.515-.656 2.524-.455 1.01.202 2.373-.183 2.929-.041.555.142 1.569-.211 2.123-.514.553-.303 3.027-.606 4.34-.858s4.342-1.565 4.544-1.767c.202-.202 2.423 1.212 3.231 1.414.808.202 2.979.757 3.837 1.262.14.082.336.162.565.237-1.056.728-2.049 1.474-2.837 2.288-1.515 1.565-3.585 4.493-4.393 6.311-.226.51-.781 1.588-1.504 2.926-.684-.143-.982.295-.982.295s-.265-.114-1.211-.266c-.947-.151-2.575.303-3.749 1.174s-2.727 4.278-2.878 4.847c-.151.567-.985 1.175-1.325 1.175-.341 0-.909.566-1.136.87-.227.304-.417 1.553-.417 1.553s-.455-.719-.644-.946l-.416-.188s-.53.492-.72 1.553l-.189 2.234s-.757.795-1.022 1.211c-.265.417-.795 1.667-.795 1.667s-.606-.417-1.477-1.363c-.871-.947-1.628-2.311-1.969-2.537-.341-.228-.568-.228-.568-.228s-.984.909-.417 3.521c.568 2.613 2.007 4.394 2.007 4.394s.038.682-.189.53-.909-.455-2.31-2.084c-1.401-1.627-2.537-3.635-2.537-3.635s-.53.113-.644.416c-.113.305-.682 1.213.114 4.166.795 2.953 2.348 4.885 2.348 4.885s-.417 1.062-.795.605c-.379-.454-.833-.605-1.174-.795-.341-.189-.417-.721-1.515-2.234-1.098-1.515-2.007-4.127-2.196-4.582-.189-.453-.606-.529-.606-.529s-1.25 1.061-1.477 2.613c-.227 1.551 0 3.369.72 5.035.719 1.665 1.688 3.404 1.69 3.407-.158.063-.306.116-.44.151l-.112.031c-.604-.007-1.138-1.734-1.479-1.584l-.455.758s-1.174-1.627-2.234-3.295c-1.06-1.666-1.59-3.521-1.78-3.976-.189-.454-.682-.53-.682-.53s-.719.795-1.022 1.855c-.303 1.061-.454 1.855-.189 3.636.265 1.778 2.432 5.919 2.435 5.925-.614.062-.87-.053-1.35.209-.123.067-.415.217-.806.408 0 0-.507-.445-.961-1.24-.455-.796-1.098-1.97-1.326-2.461-.227-.492-.492-.531-.492-.531s.076-.228-.53.151c-.605.38-.757 2.158-.757 2.158s-.378-.454-.757-1.363c-.378-.907-.871-2.081-1.06-2.385l-.492-.493s-1.061 1.78-.985 3.674c.076 1.889 1.24 4.881 1.246 4.896-.007-.008-2.421-2.704-3.479-5.086-1.061-2.387-1.363-4.545-1.59-5.074-.228-.529-.606-.721-.606-.721s-1.288 1.213-1.78 2.613-.379 3.295.038 5.301c.414 1.996 1.562 5.065 1.564 5.107l-.709.288c-.002-.003-1.878-2.291-2.597-3.993-.72-1.705-.72-3.863-.833-4.279-.114-.416-.379-.567-.379-.567s-.947.303-1.515 1.704c-.568 1.4-.568 2.499-.568 2.499s-.53-1.175-1.022-2.462c-.492-1.287-.568-2.387-.682-3.143-.114-.759-.53-1.439-.53-1.439s-1.666.682-2.196 4.015c-.53 3.332 0 4.733 0 4.733l-.227-.189s-.644.303-1.061 1.779c-.417 1.479-.341 2.574-.341 2.574s-1.022-1.021-1.817-2.424c-.795-1.399-1.477-3.293-1.742-4.088-.265-.797-.719-1.022-.719-1.022s-1.136 1.399-1.363 3.219c-.227 1.817.189 3.104.189 3.104l-.341-.342s-.53.721-.871 1.439l-.528 2.048s-2.045-1.779-2.878-3.295-1.363-2.916-1.628-3.786c-.265-.871-.946-1.78-.946-1.78s-.492-.113-.909 1.325l-.492 3.067s-.189-.227-.378-.605l-.568-.605s-.795 1.742-.833 3.636l.493 5.301s-.606-.644-1.439-2.082-1.174-2.348-1.287-2.765c-.114-.416-.568-.795-.568-.795s-.265-.113-.605.644c-.341.759-.303 2.234-.303 2.234s-.341-.341-.568-.72l-.53-.416s-.455 1.438-.303 3.065c.151 1.629.833 3.712.606 3.333-.228-.379-.82-.645-.82-.645s.062-.645-.241.152c-.303.795.038 2.498.038 2.498l-.493-.303s-.644 2.232-.189 4.089c.454 1.856 1.565 2.989 1.565 2.989l-.139.279c-.252.404-.707-.604-.909.201-.952 3.799 4.848 6.361 6.833 8.643.359.413.04.751.838 1.25 1.333.833 3.83.699 5.334.943 2.315.375 4.032 1.078 5.984 2.348 1.912 1.242 4.592 1.951 6.761 2.672.606.202 2.323-.102 3.08 0 .757.102 2.928-.555 3.535-1.162 2.928-2.921 8.133-4.559 11.811-6.268 4.57-2.125 9.176-4.201 13.501-6.803 2.446-1.472 5.55-2.076 7.859-3.691.505-.354 3.888-1.969 4.444-2.07 1.613-.298 3.349-1.738 4.759-2.529 2.438-1.367 4.956-2.557 7.563-3.565 5.213-2.019 10.648-3.372 16.035-4.827 3.884-1.049 7.459-2.902 11.226-4.273.556-.203 3.837-1.615 4.747-1.768 2.144-.357 4.419-.74 6.45-1.521 2.643-1.019 4.453-3.174 6.598-4.929 1.745-1.426 3.166-2.89 4.667-4.536 1.408-1.547 3.356-2.231 4.849-3.691 1.542-1.506 2.962-3.092 4.608-4.498 3.638-3.109 6.46-6.164 8.372-10.588 1.736-4.016 4.857-6.467 7.096-10.164 2.918-4.815 5.877-9.086 9.465-13.391.505-.606.656-.909.505-1.414l-.252-1.01s1.414-1.111 1.868-1.414c.453-.303 2.676-1.111 3.281-1.464.416-.243 1.31-.51 1.975-.686.049.36.083.66.1.887.249 3.434.652 6.059 1.057 6.564.406.505.506.475.404-1.025-.029-.444-.388-3.067-.887-6.593l.027-.006c.455-.101.959-.303 1.111-.455.15-.151 2.321.252 2.979.202.656-.05 1.312-.303 1.515-.455l.959-.151.087-.037.141 1.022s.371-.615.527-1.994c.148-.347.282-.729.406-1.061.303-.808.605-1.817.656-2.272.051-.454 0-1.312 0-1.616 0-.303-.051-2.02-.454-2.373l-1.437-1.199c-.885-5.581-2.261-13.211-3.185-16.599-.938-3.441-2.953-9.716-4.487-14.356.268.154.482.274.625.345.467.233 1.133.306 1.875.241.047.437.131.821.245 1.123.505 1.313 1.769 4.14 2.651 6.059.884 1.918 1.691 6.261 2.297 9.29.605 3.029 1.934 19.925 3.534 23.528.612 1.379 1.229 3.181 1.838 5 .673 4.009 1.269 7.699 1.269 7.699s.379-.227.379-.757c0-.154-.026-1.051-.082-2.396.429 1.13.844 2.076 1.242 2.674 1.414 2.121 6.033 9.189 5.139 6.665-.896-2.524-3.522-5.573-5.44-10.208-.327-.789-.72-1.96-1.146-3.387-.172-3.031-.424-6.577-.773-9.479-.758-6.286-1.742-13.48-1.895-17.268-.15-3.787.076-14.617-.604-18.858-.049-.302-.085-.604-.112-.903.697.447 1.383.834 2.006.979l2.352.306c.169.694.314 1.435.416 2.199l.068.596c.248 2.578 1.033 7.19 1.276 9.922-.761-.068-1.487.269-1.487.269s2.045 5.526 2.502 9.494c.365 3.202.778 6.733 1.135 9.749-.305 3.466-1.111 9.222.505 12.958.821 1.903 2.642 5.981 4.802 10.191.816 2.361 1.604 4.651 1.762 5.437.303 1.515.834 2.877 1.287 3.256.346.287.122-1.478-.137-3.372 1.248 2.114 2.514 4.016 3.695 5.392 4.344 5.05 4.473 4.442 4.408 4.746-.065.304.742-1.312-.873-2.728-.998-.873-5.037-6.867-8.434-12.822-.622-1.836-1.419-3.883-2.068-5.833-.901-2.706-2.807-10.613-3.59-15.046.062-.867.117-1.66.105-2.397-.051-3.08-.201-5.462-.656-7.422-.201-.867-.373-2.777-.572-4.781-.004-.41 0-.779.018-1.09.15-2.888-.379-6.751.303-10.311l.098-.5c2.108.562 4.652 2.215 6.346 2.384-.12.584-.203 1.129-.231 1.6-.151 2.5-1.137 1.742-1.137 1.742s.985 1.969.606 4.62-3.029 15.308 3.028 29.58c1.442 3.401 3.297 6.735 5.302 9.87 1.137 2.508 5.074 8.794 7.194 11.217 2.121 2.424 13.633 14.314 15.603 15.374 1.969 1.062-2.865-3.104-5.105-5.528-.739-.8-2.641-2.873-4.93-5.555-2.875-3.704-7.238-9.43-10.412-14.06-.897-1.573-1.594-3.044-1.971-4.317-2.197-7.422-4.015-12.042-4.619-15.829-.606-3.787-1.062-9.695.453-12.042 1.516-2.347 3.182-3.635 1.363-4.468l-2.55-1.439c-.403 1.111.101 3.787-.354 5.352-.453 1.565-1.211 4.67-.883 8.28.219 2.414 2.413 10.77 4.184 16.791-2.576-5.922-7.37-16.917-5.018-27.091 1.254-5.419 2.829-8.483 4.17-10.337.231.745.506 1.349.83 1.704 1.514 1.666 2.727 2.726 4.694 1.666.137-.074.284-.119.438-.143-.193.788-.369 1.501-.516 1.96-.438 1.387-1.502 4.186-.152 8.049-.086.711-.062 1.599.229 2.629.193.692.479 1.909.812 3.397.086 1.854.269 4.08 1.353 7.509.289.913.624 1.865.993 2.839.377 1.541.727 2.836 1.007 3.633 1.137 3.221 2.877 7.346 4.923 10.113.432.583 1.044 1.376 1.775 2.294.424.745.82 1.426 1.179 2.023 2.728 4.543 9.467 13.102 13.405 16.51 3.938 3.408 5.527 5.074 5.527 5.074s-.529-1.137-1.136-1.895c-.435-.543-7.026-7.049-12.032-13.676 1.163 1.227 2.281 2.32 3.247 3.136 3.786 3.194 8.181 6.458 10.905 8.041.417.241.814.466 1.197.675.996 1.977 2.011 3.895 2.361 4.324.682.833 2.728 4.544 2.803 5.831.076 1.288.455 2.045.455 2.045s.379-3.257-.605-5.302c-.963-1.998-2.43-3.926-3.557-6.135 1.457.731 2.688 1.256 3.858 1.741 1.817.759 3.029 1.212 3.029 1.212s.833-.074-.983-1.06c-1.267-.687-4.258-2.181-6.75-3.611-1.447-2.997-3.863-8.151-4.99-10.778-1.133-2.645-6.031-11.775-7.739-17.306 2.536 2.825 6.389 7.275 8.797 9.05 3.185 2.347 4.319 4.544 6.29 6.059 1.969 1.516 7.193 7.498 9.542 9.468l.229.189c-.207.617-.381 1.154-.507 1.576-1.11 3.736-3.131 11.008-3.534 12.319-.403 1.313-1.414 6.06-3.131 3.938s-3.23-4.443-3.635-5.453-.909-1.717-1.414.505.102 4.746.809 6.06c.707 1.312 2.828 4.745 2.828 6.361 0 1.615.303 2.02.504 2.727s.201 3.029.403 4.545c.202 1.515.202 3.836 0 5.25s-.707 5.959-.707 6.867.304 1.615-.2 2.625c-.507 1.01-.707 2.524-.103 3.029.606.505.303.404.303 1.414s.304 7.271.103 8.785c-.202 1.514-.303 6.158-.202 7.169.101 1.01-.304 1.01-.101 1.817.2.809.504 1.918 0 2.929-.507 1.01-1.617 3.735-2.223 4.442s-.605 1.414-.102 1.818c.505.402.505 1.109 1.212 1.516.706.402 1.616.303 1.919.907.303.606 1.109 1.111.605 1.414-.506.304-1.213.908-1.718.707-.505-.202-.907-1.515-1.817-1.817-.908-.304-2.222.707-2.826 1.312-.606.605-.606 1.413-1.414 1.816-.809.403-1.516.91-1.615 1.312h-.909c-.707.102-2.222 1.111-3.534 1.616-1.312.505-4.039 1.312-5.149 1.614-1.11.304-1.011-.201-2.021 0-1.01.203-.505.707-1.615.91-1.11.201-2.02.907-3.131 1.312-1.109.403-3.129 1.515-4.039 1.919-.908.402-.808.809 0 1.211.809.404 4.443-.102 5.453-.402 1.01-.303 2.728-.506 3.029-.809.303-.305 1.01-.102 1.919-.202.908-.103 6.06-.909 7.271-1.212 1.213-.303 2.524-1.109 2.929-1.414.403-.303.707 0 1.11.202.404.202 1.213.103 1.718-.202.505-.303.808 0 .303 1.01s-1.212 1.213-1.414 1.616c-.2.403.202.808.202.808s-.809-.303-.909.102.507 1.312-.101 1.516c-.605.201-1.92.102-2.223.605s-.201 2.02-.908 2.424c-.707.402-.504 1.312-1.11 1.615-.604.303-1.817 1.414-2.424 2.424-.605 1.01-.87.972-.304-.202.568-1.174 1.213-2.575.076-1.136-1.136 1.438-3.369 5.148-3.748 5.945-.38.795-.568 1.74.037 2.461.605.72.984.757 1.516.682.529-.076.908-.454 1.4-.341.492.112 1.362-.38 1.666-.605.303-.228.416-.796.795-.985.379-.188.984-.869.795-1.362-.188-.492-.15-.378.492-1.099.645-.719 1.516-1.438 1.895-1.477s.568-.682.644-.682c.076 0 .188.341.606.188.416-.15 1.021-.833 1.021-1.098 0-.266.189-.417.342-.605.15-.188.265-.455.227-.72-.037-.267-.151-.379.341-.567.492-.189.833-.416 1.138-.795.303-.379.112-.418.756-.379.645.037 1.401.228 1.553-.492.152-.721.418-1.022.871-.871.455.15 1.137-.075 1.478-.758.341-.682 1.933-3.863 2.499-4.431.568-.567 1.479-1.97 1.629-2.537.151-.567.113-1.25-.189-1.325-.303-.076-.228-.076-.037-.645.188-.566.758-2.271.15-2.612-.604-.341-1.136-.983-1.4-1.401-.266-.416-1.211-.795-.908-1.061.303-.265.984-.113 1.287.342.303.454 1.137 1.4 2.007 1.438.871.038 3.067 0 3.104-1.136.039-1.137-.228-2.35.418-2.463.644-.112.795-.228.907-.566.114-.342.267-.455.53-.53.266-.075.871-.491 1.136-.682.267-.189.38-.417.683-.53.304-.113.908-.871.984-1.439.075-.566.529-1.06.719-1.553.189-.492.418-.869.683-1.438.266-.568.682-2.387.758-3.143.075-.759-.151-.947.416-1.554s.683-.833 1.212-1.553c.53-.72.984-1.515 1.363-2.158.379-.646 1.287-1.667 1.895-2.233.604-.568 1.741-1.895 2.424-3.145.16-.295.315-.609.459-.934.364 1.705.735 3.166.84 4.519.203 2.626.404 8.078 2.223 9.896 1.816 1.817 1.615 2.021 2.625 3.029 1.01 1.01 2.02 2.02 3.636 2.827 1.615.808 3.636 1.212 5.856 2.021 2.221.808 3.23 1.615 5.857 1.615 2.625 0 8.279 1.01 10.702 0 2.425-1.01 2.626-2.02 4.849-2.424 2.222-.404 3.028-1.615 4.039-3.636 1.01-2.021 2.02-4.442-.404-5.856s-6.664-4.443-7.674-7.675c-1.01-3.229-2.021-7.472-.202-5.653 1.817 1.817 3.837 5.25 5.653 7.067 1.818 1.817 3.03 2.424 4.241 4.039 1.212 1.616 4.04 6.463 4.04 7.675s-2.02 2.424-3.434 3.635c-1.414 1.213-8.482 5.857-9.896 6.666-1.412.807-3.433 2.02-4.645 2.424-1.213.402-.809.201-1.01 1.614-.203 1.414-.203 2.425-1.818 1.212-1.615-1.212-1.413-1.414-2.827-.808-1.413.604-4.366.403-5.808.024-1.438-.379-1.665-.455-2.422-.908-.758-.454-.758-1.516-1.363-1.363-.605.15-.833.529-.833.529s-.151-1.061-1.062-1.438c-.908-.378-.908-.757-1.666-.604-.758.15-.529.379-1.816.074-1.288-.303-3.182-.908-3.938-1.666-.759-.756-1.439-.908-1.062.151.379 1.062 2.803 3.104 3.862 3.712 1.061.605 2.803 1.438 3.483 1.59h1.136s-.15.98.53 1.248c.683.268 1.817.569 3.029 1.024 1.212.454 1.969 1.287 3.257 1.515 1.287.229 1.287-.303 1.969.682.682.985.833.304.151.834-.683.529-1.212.682-1.894.682l-1.591.682s-.682-.605-1.741-.453c-1.062.15-1.742.832-2.121.832s-2.349-.682-3.787-.758c-1.438-.074-5.149.303-5.756-.074-.605-.379-.682-.758-.453-1.062.227-.304-.379-.53-.606-.909s-.53-.908-1.515-1.287-1.895-2.271-.908-3.408c.984-1.136 1.438-1.287 1.816-1.438s.151-.604-1.136-.151c-1.288.455-4.469 2.196-4.394 5.303.076 3.104 1.061 4.014 1.894 4.998s.759.758 1.363 0c.606-.758.983-.834 1.137-.228.151.604 0 1.741.529 1.741.53 0 2.878-.227 4.317 0 1.438.229 2.574.455 3.104.682.529.229.983-.227 1.211-.453.228-.229.455.123.759.517.303.393 1.135.544 1.666.393.529-.151.832-.489 1.438.058.604.549 1.211.513 1.666 0 .454-.512.833-.664.833-.664s.682 1.213 1.666.759.682-.151 1.591-.076c.907.076 4.241-.983 4.998-1.06.758-.076 2.045-.834 2.196-1.363.15-.53.453-2.121 1.136-1.742.682.379 1.97 1.061 2.803.303.833-.757.908-1.438 1.742-1.742.833-.303 1.666-.529 1.894-.832s.455-.984 1.59-1.741c1.137-.759 10.906-4.47 12.496-4.771 1.592-.303 6.816-3.56 6.515-5.073-.304-1.516-.985-1.439-1.363-1.289-.379.151.228-.528.075-1.438s.455-1.136.833-1.816c.379-.683.683-2.424-.228-3.863-.908-1.438-4.543-7.877-6.514-10.905-1.969-3.028-3.104-6.135-4.468-7.498-.845-.843-2.295-2.759-3.388-4.349l.004-.271c.102-4.342.925-16.763.715-19.59-.191-2.587-1.729-10.751-2.764-15.523 1.111-2.164 2.262-4.359 2.933-5.631 1.438-2.728 5.226-9.316 6.06-10.68.189-.311.492-.766.857-1.297.493 2.234.868 4.311 1.111 5.689.453 2.574 2.498 5.68 3.256 8.937.312 1.335.927 4.058 1.588 6.909-.422 4.918-.885 9.603-1.233 11.394-.809 4.142.019 3.925-.546 7.517-.564 3.593-.379 3.289-.824 7.228-.447 3.938-1.457 10.806-1.559 13.733-.102 2.929.605 5.049 1.109 5.049.506 0 .524-4.442 1.272-5.252.747-.807-.344-1.412 0-3.938.345-2.525 2.97-15.854 3.575-19.994.193-1.326.471-3.365.779-5.69 1.199 3.825 5.857 20.799 6.138 22.126.303 1.438 1.136.529 1.969 0 .833-.53.683-1.061 0-2.575-.682-1.515-.228-3.483-.53-5.528-.246-1.671-4.133-15.218-6.373-23.096.281-2.122.543-4.053.744-5.482.706-4.998-.404-18.326-.707-22.567-.131-1.825-.062-4.382.096-7.037.771-.933 1.474-1.761 2-2.329 1.894-2.045 3.863-3.938 5.302-5.453 1.438-1.515 1.816-1.742 2.271-1.894.454-.151 1.212-.757 1.363-1.287.151-.53 1.211-2.727 1.741-3.863.53-1.136 1.137-1.136 2.651-1.969s8.026-14.314 5.83-16.359c-.22-.205-.479-.435-.766-.68l10.611-2.653s.202-65.274-.075-66.435c-.278-1.161-1.379-1.262-1.379-1.262s-.287-.413-.035-1.17c.253-.757-.908-.354-1.363-.202l-11.314 1.046zm-357.941 90.934c-.202.606-.505 2.02-.808 3.535-.303 1.515-1.414 2.827-2.121 4.645 0 0-1.01 2.625-1.414 3.71l-.707 2.449s-.101.403-.707.809c-.606.402-1.01.707-3.029 1.722-2.02 1.015-3.131-.207-4.04-1.015-.909-.81-2.121-2.424-2.828-4.444-2.292-6.551 4.087-9.518 8.18-13.025.707-.606 4.746-2.929 6.463-3.333 1.716-.404 1.211 1.01 1.01 2.138-.201 1.127.203 2.203.001 2.809zm47.334-7.497c-2.021 2.715-4.816 1.842-7.885 2.077-1.256.096-2.238.386-3.492-.081-2.618-.982-2.68-2.835-1.472-5.077.354-.657 2.5-3.862 3.004-4.039.504-.177.958-.429 1.362-.756 1.584-1.285 2.118-.168 3.593.434.463.189 1.008.027 1.562.225 2.093.744 4.974 5.003 3.328 7.217zm42.286-16.94c-.606 1.061-1.515 1.061-1.06 2.664.454 1.604-3.181 4-5.908 5.516-2.726 1.515-5.907 2.575-7.271 2.423l-3.635.606c-1.817.303-4.847.454-8.937.757-4.09.303-6.21-1.969-7.574-6.21-1.364-4.241-.606-9.088 1.212-12.42 0 0 2.575-4.393 4.695-6.362 2.12-1.969 4.09-3.181 6.362-4.696 2.272-1.515 6.816-3.635 10.148-5.604 3.333-1.969 4.241 2.878 4.696 4.241.455 1.363.455 2.878.606 4.544s2.272 3.484 3.991 4.847c1.719 1.363 3.886 3.938 3.734 4.999-.151 1.06-.453 3.635-1.059 4.695zm24.487-4.746c-.909.303-2.979.404-4.039.505-1.061.101-3.03 1.01-3.837-.354-.808-1.363-2.222-3.584-3.585-4.645-1.363-1.06-4.847-3.433-6.059-7.169-1.212-3.736-.101-6.311-.858-7.271s-.05-1.667-.252-2.07c-.202-.403-.517-1.363-.107-2.07s.662-2.575 1.167-4.292c.505-1.716 1.162-4.039 2.121-4.292.959-.252 1.919-1.515 2.121-2.121.202-.606.606-1.161 1.414-.656.808.505 3.383-.505 4.342-1.161.959-.657 3.13-1.212 4.342-.858 1.212.353 2.121.606 2.676 1.616.556 1.01.101 1.565.606 2.02.505.454.657.606.505 1.767-.151 1.161-1.161 3.686-1.161 3.686-1.616 2.625-3.13 4.14-4.544 5.251s-4.04 2.727-4.241 3.231c-.202.505-.101 1.01-.909 1.313-.808.303-.909.808-1.313 1.414-.404.606-2.423 2.02-2.222 2.827.202.808 1.111 2.222 2.121 2.222s3.029-.808 3.231 0c.202.808-.202.808 0 1.515s.693.707 1.255 1.01c.562.303-.461 0 0 .909s1.067 0 1.067.808 0 1.01.808 1.313c.808.303 1.918 0 1.918 0s.505.808-.101 1.716c-.606.909-1.717 2.525-.404 2.525s2.323-1.01 3.333-.606l1.717 1.312s-.203.302-1.112.605zm66.999-4.999c-.504 0-.857.151-.857.151s0-.605-.656-.808-.857-.151-1.16-.252c-.304-.101-1.363-.858-2.172-1.161-.808-.303-1.414-.505-1.867-.505-.455 0-1.111-.051-1.92-.657-.808-.605-2.02-1.616-2.727-2.625-.707-1.01-1.161-1.868-1.515-2.474-.353-.605-.404-1.969 0-3.282.281-.912.68-2.065.951-3.142 1.338.236 2.459.438 3.14.567 3.131.594 2.12.454 3.636-.303.686-.343 1.248-.375 1.854-.435.52 1.647 4.256 12.452 4.961 14.774.055.175.127.451.217.809-.689-.347-1.441-.657-1.885-.657zm8.181-3.282c1.362 4.09 1.515 4.317 2.878 9.467.396 1.498.824 3.661 1.232 5.977-.303-.481-.666-1.119-.879-1.761-.304-.909-.858-1.716-1.769-2.928-.908-1.212-3.635-4.847-4.493-5.049-.662-.155-.844-.161-1.031-.085-.107-.687-.188-1.167-.23-1.378-.403-2.02-1.615-6.362-2.523-9.593-.756-2.684-1.301-5.78-1.578-7.506 1.457-1.229-.229-2.234-.088-3.5.15-1.363.15-2.121 1.211-1.06l.25.23c2.218 5.392 5.968 14.034 7.02 17.186zm4.09-10.17c-.276-1.255-.655-2.572-1.044-3.783 1.033-.681.271-1.989 1.801-2.406l.26-.042c.479 2.934 1.088 6.913 1.474 10.418.31 2.807.491 5.919.635 8.592-.774-4.779-2.483-9.853-3.126-12.779zm3.569 19.241c.085.706.197 1.738.33 2.933-.15-1.078-.263-2.067-.33-2.933zm20.498-18.669c-.741-.172-.605-1.197-1.424 0-.222.324-.506.899-.807 1.614-.012-.472-.025-.905-.025-1.255 0-1.969-.304-1.969 1.211-4.544 1.516-2.575 2.271-8.028 2.271-8.028s1.061 1.969 1.061 3.181c0 .961-1.617 6.109-2.287 9.032zm34.248 65.492c1.061 2.121 2.424 4.393 3.104 5.982.218.508.688 1.509 1.254 2.663-.473-.297-.897-.582-1.254-.847-2.348-1.74-10.83-8.254-12.421-10.299-1.59-2.045-3.711-4.316-5.452-6.816l-.612-.879c-1.867-3.929-4.205-7.667-5.987-12.09-.39-1.488-.638-3.019-.669-4.553-.153-7.547-1.062-7.471.377-8.304l2.271-4.544-2.648-4.544-1.889.184c.166-4.501.433-2.72 1.433-3.592.34-.296.756-.739 1.17-1.251.778.397 1.54.685 2.237.722 2.438.128 4.224-.721 4.252.765-.467.758-.816 1.661-.92 2.719-.227 2.348-.756 10.376.759 14.314s4.771 9.921 5.68 11.814 8.257 16.434 9.315 18.556zm18.448 5.024c-.826-.823-1.521-1.548-1.937-2.033-1.554-1.817-7.157-6.93-8.181-8.256-1.021-1.325-5.717-6.021-6.739-8.937s-1.515-5.609-1.742-7.576c-.228-1.967-1.022-8.291-1.59-9.162-.568-.871-3.56-4.96-3.56-4.96h-2.332c.047-.737.102-1.491.164-2.243.553.25 1.039.402 1.409.425 2.425.151 5.453-2.727 4.394-1.363-1.061 1.364 1.061 6.059 3.181 7.725 2.121 1.666 3.636.455 3.028-1.211l-.03-.112c2.708 3.827 6.765 9.4 9.138 12.851-.05.615-.013 1.244.174 1.903.769 2.727 1.816 5.847 4.201 7.978.662.592 1.534 1.425 2.495 2.371.622 1.363 1.099 2.57 1.291 3.41l.013.049c-1.209 3.142-2.489 6.583-3.377 9.141zm19.875-17.749c.158-.303.627-1.08 1.299-2.165.129 1.521.299 2.926.52 4.134 1.439 7.876 5.15 22.645 5.682 25.75.096.561.221 1.488.365 2.651-.794-.871-1.505-1.662-2.008-2.255l-1.859-2.184c-.252-.615-.521-1.313-.715-2.252-.43-2.07-1.895-6.59-2.07-7.676s-.707-3.561-1.136-4.141c-.43-.58-1.137-4.645-1.362-5.528-.051-.192-.246-1.157-.525-2.568.855-1.821 1.545-3.26 1.809-3.766zm-3.659 7.712c.623 1.806 1.166 3.384 1.537 4.406 1.211 3.332 3.56 8.433 3.912 10.022.092.405.277 1.043.51 1.81-2.395-2.796-5.199-6.063-6.998-8.146-.48-.558-1.098-1.224-1.787-1.957.746-1.642 1.789-3.904 2.826-6.135zm-10.964-25.02c.154.652.469 1.363.99 2.162 1.951 2.983 3.206 5.532 4.424 8.238-1.898 3.426-3.66 6.715-4.322 8.171-.286.632-.688 1.584-1.153 2.736-.308-.623-.478-1.175-.462-1.625.102-2.928.712-5.049.406-9.492-.268-3.88.008-7.143-.727-9.051.263-.326.551-.708.844-1.139zm4.651 44.327c-.353-.387-.704-.764-1.041-1.117l.256-.788c.32.817.583 1.459.761 1.848l.024.057zm17.849 19.887c-2.222.201-3.838 0-6.463-1.012-2.625-1.01-4.848-1.614-6.664-.201-1.817 1.414-3.637 3.434-2.425 5.857 1.212 2.422 2.828 7.674 2.626 10.502-.18 2.514-1.634 6.309-1.812 10.241-.158-.239-.321-.448-.484-.61-.908-.91-1.438-2.084-1.438-2.084s.303-.34.492-.795c.188-.453.453-1.211-.113-2.082-.568-.871-.985-1.932-.985-1.932s.228-.645-.037-1.021c-.266-.379-1.345-1.862-1.647-2.312-.303-.451-.625-.564-.436-1.134.189-.567.946-4.165.721-5.074-.229-.907-2.576-8.672-2.916-10.375-.342-1.704-.568-7.31-.113-8.899.38-1.33 1.714-6.422 2.605-9.403.327.292.612.553.84.771.287.275.601.604.928.959 1.517 3.903 4.574 12.826 5.435 13.885.984 1.213 2.728 2.804 2.728 2.804s-1.895-3.029-2.651-5.377l-2.331-7.513c.539.686.893 1.149.893 1.149s.213-.351-.567-1.478c-.134-.192-.386-.518-.718-.926-.991-3.156-1.969-6.162-2.426-7.216-.138-.317-.336-.877-.58-1.61.813-2.283 1.746-4.84 2.17-5.888l.181-.422c1.694 1.519 3.424 3.03 4.491 4.335 1.097 1.342 3.701 4.301 6.039 6.926.481 1.651.932 3.359 1.08 4.586.328 2.728.656 5.907.656 5.907s.504-.757.377-2.524c-.107-1.528-.351-4.531-.543-6.213.896 1 1.668 1.858 2.186 2.428.318.351.707.756 1.135 1.188.55 4.641 1.27 11.24 1.777 14.905-.569-.266-1.177-.418-2.011-.342zm12.117-5.051c-2.02 3.029-4.443 7.877-6.867 7.07-.271-.092-.518-.189-.748-.294-.336-3.25-.336-6.997-.336-10.233 0-.607-.007-1.424-.021-2.389 1.072.928 1.896 1.555 2.016 1.453.119-.099-.775-1.158-2.037-2.566-.127-5.465-.582-14.344-2.078-19.067-1.893-5.983-2.498-20.676-2.498-23.099 0-.592-.153-2.043-.387-3.962l2.002-3.124c1.357-.09 2.387-.193 2.776-.288 1.666-.406 0-2.169.606-3.532.604-1.363 2.574-5.15 2.422-3.181-.145 1.879 2.056 5.823 3.047 6.576-.312 5.738-.682 12.903-.773 14.327-.15 2.348 2.953 20.298 3.561 22.872.455 1.934 1.978 7.669 2.965 11.741-1.588 3.646-2.955 6.653-3.65 7.696zm3.838-38.472c-.117 1.982-.271 6.859-.186 11.424-.819-5.223-1.688-12.402-2.139-15.716-.316-2.339.135-9.304.668-15.955.242-.166.467-.316.664-.439 1.047.927 1.483 1.387 1.49 2.509.007 1.313-.296 14.744-.497 18.177zm7.976 56.551c-.135 2.072.003 7.027.212 11.224-.442-1.022-.591-1.04-.515-2.312.074-1.287-.304-2.879-1.817-3.258-1.515-.379-1.667.076-2.121-.15-.454-.228-.379-1.137-.379-1.438 0-.304-.908.075-.757-1.362.15-1.439.379-4.849.453-5.832.076-.984-.15-3.561-.15-4.166 0-.187.093-.908.244-1.871.404 2.058.721 3.637.816 4.067.303 1.363 1.211.757 1.894.454s.757-.454.454-1.591c-.303-1.136-.682-1.515-.605-4.923.033-1.495-.182-3.517-.507-5.588.341 1.338.636 2.424.859 3.113 1.212 3.735 2.12 10.502 1.919 13.633zm.101-44.332c-.649 1.065-1.771 3.504-3.079 6.492-.232-2.479-.349-4.775-.253-6.492.304-5.451-.101-15.146 0-17.873.103-2.727 2.222-12.219 2.828-14.036.455-1.366.853-3.586.767-5.334l.263-.118c.332 5.82 1.87 13.493 2.329 16.037.376 2.091 1.688 7.917 2.938 12.974-2.383 3.242-4.557 6.327-5.793 8.35zm8.969-12.617c-.859-4.324-2.065-11.968-3.012-16.314-.449-2.071-.662-4.463-.74-6.794l.438.281c1.666 1.06 2.424-1.061 4.394-1.515.971-.224 2.272-1.074 3.453-1.769.307 1.278-.648 1.884-.011 2.981.646 1.111.949-.202.949 4.342s-.304 7.954-.101 11.146l.02.384c-1.034 1.479-2.008 2.827-2.848 3.919-.809 1.055-1.668 2.182-2.542 3.339zm7.098 28.84c-1.439-5.752-3.078-12.538-3.867-15.353.561-.732 1.081-1.391 1.482-1.855.35-.404.859-1.028 1.459-1.77.274 3.312.463 6.764.309 8.105-.303 2.625 1.01 4.24.909 6.463-.025.558-.134 2.196-.292 4.41zm8.977-51.97c-.988 1.399-2.746 4.073-4.759 7.106-.009-4.123-.046-8.15.038-10.135.497-.042.882-.128 1.034-.252.556-.455.151-5.604-.605-7.775-.758-2.171-1.614-7.574-1.11-7.523.504.051 6.918 8.583 5.402 9.189-1.515.606-.908 4.544 0 6.665.176.412.688.582 1.391.591-.62 1.024-1.391 2.134-1.391 2.134z"/></svg>
